<svg version="1.2" xmlns="http://www.w3.org/2000/svg" viewBox="0 0 800 800" width="800" height="800">
	<title>lohacker</title>
	<style>
		.s0 { fill: #ffce54 } 
		.s1 { fill: #f6bb42 } 
		.s2 { fill: #f3f3f3 } 
	</style>
	<path class="s0" d="m399.96 567.94c-24.09 0-47.57-4.57-69.78-13.58-23-9.32-43.64-23.03-61.34-40.74-17.7-17.7-31.41-38.33-40.73-61.34-9.01-22.21-13.58-45.69-13.58-69.78 0-24.08 4.57-47.56 13.58-69.79 9.32-22.99 23.03-43.63 40.73-61.33 17.7-17.7 38.34-31.41 61.34-40.73 22.22-9.01 45.69-13.58 69.78-13.58 24.1 0 47.58 4.57 69.79 13.58 23 9.32 43.63 23.03 61.33 40.73 17.7 17.7 31.42 38.34 40.75 61.33 8.99 22.23 13.56 45.71 13.56 69.79 0 24.09-4.57 47.57-13.56 69.78-9.33 23.01-23.05 43.64-40.75 61.34-17.7 17.71-38.33 31.41-61.33 40.74-22.21 9.01-45.69 13.58-69.79 13.58z"/>
	<path class="s1" d="m536.79 245.68c-37.79-37.78-87.3-56.68-136.83-56.68-49.52 0-99.04 18.9-136.82 56.68-75.57 75.56-75.57 198.07 0 273.65 37.78 37.78 87.3 56.66 136.82 56.66 49.52 0 99.04-18.88 136.83-56.66 75.57-75.58 75.57-198.09 0-273.65zm-182.43 228.04l34.2 34.2-34.2 34.2-34.21-34.2zm45.6-68.42l-113.5 113.51q-3.09-2.59-6.08-5.31l119.58-119.59 119.6 119.59q-3 2.72-6.08 5.31zm45.61 68.42l34.2 34.2-34.2 34.2-34.21-34.2zm-79.82-11.41l34.2-34.2 34.21 34.2-34.21 34.21zm-102.1 33.7l113.5-113.51-113.5-113.49q2.58-3.1 5.32-6.1l119.59 119.59-119.59 119.59q-2.74-2.98-5.32-6.08zm45.09-159.11l-34.2 34.2-34.21-34.2 34.21-34.21zm11.4 79.81l-34.21-34.21 34.21-34.2 34.21 34.2zm-94.95-64.69l3.73-3.73 34.21 34.2-34.21 34.22-3.73-3.73q-2.6-15.03-2.61-30.49c0-10.28 0.88-20.46 2.61-30.47zm49.34 41.88l34.2 34.2-34.2 34.21-34.21-34.21zm171.04-102.61l-34.22-34.22 34.22-34.2 34.2 34.2zm-45.62 68.42l113.52-113.51q3.08 2.59 6.08 5.32l-119.6 119.59-119.58-119.59q2.99-2.73 6.08-5.32zm-45.6-68.41l-34.21-34.22 34.21-34.2 34.21 34.2zm79.81 11.4l-34.21 34.21-34.2-34.21 34.2-34.2zm-22.8 79.81l119.58-119.59q2.75 3 5.32 6.09l-113.5 113.5 113.5 113.51q-2.57 3.1-5.32 6.08zm34.22 0l34.2-34.2 34.2 34.2-34.2 34.21zm45.6-45.6l34.21-34.21 34.2 34.21-34.2 34.21zm0 91.2l34.21-34.2 34.21 34.2-34.21 34.22zm83.56-15.13l-3.74 3.73-34.2-34.21 34.2-34.2 3.74 3.73c1.72 10 2.61 20.18 2.61 30.47 0 10.3-0.89 20.48-2.61 30.48zm-8.43-92.18l-29.51-29.51 9.34-9.34c7.27 10.54 13.37 21.84 18.22 33.8q1.01 2.52 1.95 5.05zm-65.78-84.45l-9.35 9.33-29.5-29.51q2.53 0.94 5.05 1.94c11.96 4.86 23.25 10.96 33.8 18.24zm-70.08-28.6l3.73 3.73-34.21 34.2-34.2-34.2 3.73-3.73q15.02-2.61 30.47-2.61 15.46 0 30.48 2.61zm-92.18 8.42l-29.51 29.51-9.34-9.33c10.55-7.28 21.84-13.38 33.8-18.24q2.51-1 5.05-1.94zm-84.45 65.78l9.33 9.34-29.51 29.5q0.93-2.53 1.95-5.04c4.85-11.96 10.95-23.26 18.23-33.8zm-20.18 162.26l29.51 29.51-9.33 9.33c-7.28-10.53-13.38-21.82-18.23-33.79q-1.02-2.52-1.95-5.05zm65.78 84.45l9.34-9.33 29.51 29.51q-2.53-0.95-5.05-1.95c-11.96-4.85-23.25-10.96-33.8-18.23zm70.08 28.6l-3.73-3.73 34.2-34.2 34.21 34.2-3.74 3.73c-10 1.74-20.18 2.61-30.47 2.61q-15.45 0-30.47-2.61zm92.17-8.42l29.51-29.51 9.35 9.33c-10.55 7.27-21.84 13.38-33.8 18.23q-2.52 1.01-5.06 1.95zm84.47-65.79l-9.34-9.33 29.51-29.51q-0.94 2.53-1.95 5.05c-4.85 11.96-10.96 23.26-18.22 33.79z"/>
	<g id="Hacker_anonymous">
		<path class="s2" d="m742.75 645.69c-0.8-9.52-2.83-18.89-6.06-27.88-3.23-8.98-7.63-17.51-13.07-25.35-5.45-7.85-11.9-14.94-19.19-21.11-7.3-6.16-15.36-11.35-24-15.41l-62.39-29.38 33.71-69.62c4.59-9.47 8.09-19.42 10.44-29.67 2.35-10.25 3.54-20.73 3.54-31.25 0-10.51-1.19-21-3.54-31.24-2.35-10.25-5.85-20.21-10.43-29.67l-89.57-185c-65.64-135.56-258.74-135.56-324.37-0.01l-89.59 185.02c-4.58 9.46-8.08 19.41-10.43 29.66-2.35 10.25-3.54 20.73-3.53 31.25 0 10.52 1.18 21 3.54 31.25 2.35 10.25 5.85 20.2 10.43 29.66l33.72 69.62-62.39 29.38c-8.64 4.06-16.71 9.25-24 15.41-7.29 6.17-13.74 13.27-19.19 21.11-5.44 7.84-9.84 16.37-13.07 25.35-3.23 8.99-5.26 18.36-6.06 27.88l-5.64 67.77c-0.4 4.85 0.2 9.73 1.78 14.34 1.58 4.6 4.1 8.82 7.39 12.4 3.3 3.59 7.3 6.44 11.75 8.4 4.46 1.95 9.27 2.96 14.14 2.96h626.66c4.87 0 9.68-1.01 14.14-2.96 4.45-1.96 8.46-4.81 11.75-8.39 3.29-3.58 5.81-7.81 7.39-12.41 1.58-4.6 2.18-9.48 1.78-14.33zm-173.99-239.25c-0.01 20.85-3.88 41.52-11.42 60.97-7.54 19.44-18.62 37.31-32.68 52.72-14.05 15.4-30.85 28.07-49.52 37.35-18.67 9.28-38.91 15.02-59.67 16.93v-41.4c0-4.1-1.63-8.04-4.53-10.94-2.9-2.9-6.83-4.53-10.93-4.53-4.11 0-8.04 1.63-10.94 4.53-2.9 2.9-4.53 6.84-4.53 10.94v41.4c-20.76-1.91-41-7.65-59.67-16.93-18.67-9.28-35.47-21.95-49.52-37.35-14.06-15.41-25.14-33.28-32.68-52.72-7.54-19.45-11.41-40.12-11.41-60.97v-88.57c0-5.91 1.16-11.76 3.42-17.23 2.27-5.46 5.58-10.43 9.76-14.61 4.19-4.18 9.15-7.5 14.61-9.76 5.47-2.26 11.32-3.43 17.24-3.43h247.43c5.92 0 11.77 1.17 17.24 3.43 5.46 2.26 10.42 5.58 14.61 9.76 4.18 4.18 7.49 9.15 9.76 14.61 2.26 5.47 3.43 11.32 3.43 17.23z"/>
		<path class="s2" d="m502.85 431.25c-1.95-0.58-3.99-0.77-6.01-0.56-2.03 0.21-3.98 0.82-5.77 1.79-1.79 0.97-3.37 2.28-4.65 3.85-1.28 1.58-2.23 3.39-2.81 5.34-1.31 4.37-4 8.21-7.66 10.93-3.66 2.73-8.1 4.2-12.67 4.2-4.56 0-9.01-1.47-12.67-4.2-3.66-2.72-6.34-6.56-7.65-10.93-1.17-3.93-3.86-7.24-7.46-9.2-3.61-1.95-7.85-2.39-11.78-1.22-3.94 1.17-7.24 3.85-9.2 7.46-1.95 3.61-2.4 7.84-1.23 11.78 3.22 10.76 9.82 20.2 18.82 26.91 9.01 6.71 19.94 10.33 31.17 10.33 11.23 0 22.16-3.62 31.17-10.33 9.01-6.71 15.61-16.15 18.82-26.91 0.58-1.95 0.76-3.99 0.55-6.01-0.21-2.02-0.82-3.98-1.78-5.77-0.97-1.79-2.28-3.36-3.86-4.64-1.57-1.28-3.39-2.24-5.33-2.82z"/>
		<path class="s2" d="m376.28 431.25c-1.94-0.58-3.99-0.78-6.01-0.57-2.02 0.21-3.98 0.82-5.77 1.79-1.79 0.97-3.36 2.28-4.64 3.86-1.28 1.57-2.24 3.39-2.82 5.34-1.31 4.37-3.99 8.21-7.65 10.93-3.66 2.73-8.11 4.2-12.67 4.2-4.57 0-9.01-1.47-12.67-4.2-3.66-2.72-6.35-6.56-7.66-10.93-1.17-3.93-3.85-7.24-7.46-9.2-3.61-1.95-7.84-2.39-11.78-1.22-3.93 1.17-7.24 3.85-9.19 7.46-1.96 3.61-2.4 7.84-1.23 11.78 3.21 10.76 9.81 20.2 18.82 26.91 9.01 6.71 19.94 10.33 31.17 10.33 11.23 0 22.16-3.62 31.17-10.33 9-6.71 15.6-16.15 18.82-26.91 0.57-1.95 0.76-3.99 0.55-6.01-0.21-2.02-0.82-3.98-1.79-5.77-0.96-1.79-2.27-3.36-3.85-4.64-1.58-1.28-3.39-2.24-5.34-2.82z"/>
		<path class="s2" d="m498.44 355.37h-56.25c-4.11-0.01-8.06 1.61-10.97 4.51-2.91 2.91-4.54 6.85-4.54 10.96 0 4.11 1.63 8.05 4.54 10.95 2.91 2.9 6.86 4.52 10.97 4.51h56.25c4.11 0.01 8.05-1.61 10.96-4.51 2.91-2.9 4.55-6.84 4.55-10.95 0-4.11-1.64-8.05-4.55-10.96-2.91-2.9-6.85-4.52-10.96-4.51z"/>
		<path class="s2" d="m301.56 386.3h56.25c4.11 0.01 8.06-1.61 10.97-4.51 2.91-2.9 4.54-6.84 4.54-10.95 0-4.11-1.63-8.05-4.54-10.96-2.91-2.9-6.86-4.52-10.97-4.51h-56.25c-4.11-0.01-8.05 1.61-10.96 4.51-2.91 2.91-4.55 6.85-4.55 10.96 0 4.11 1.64 8.05 4.55 10.95 2.91 2.9 6.85 4.52 10.96 4.51z"/>
	</g>
</svg>