<svg version="1.2" xmlns="http://www.w3.org/2000/svg" viewBox="0 0 800 800" width="800" height="800">
	<title>lohacker</title>
	<style>
		.s0 { fill: #ffdb33 } 
	</style>
	<g>
		<path class="s0" d="m331 80.5c-30.9 2.9-59.1 9.6-88.5 21.2-37.4 14.8-73.5 37.9-101.2 64.8l-12.8 12.4 16.8 0.1h16.8l-6.7 7.5-6.7 7.5h-32.2-32.1l-8.4 11.2c-11.4 15.4-13 17.6-13 18.2 0 0.3 6.5 0.6 14.5 0.6 8 0 14.5 0.3 14.5 0.6 0 0.3-1.3 2.4-2.8 4.7-4.8 7.1-13 22-18.4 33.3-16.6 35.2-26.6 72.9-29.8 111.7-0.6 7.9-1 55.9-1 124.3v111.4h36.5 36.5v14.5 14.5h-49.5-49.5v8.5 8.5h12.9 13l0.3 22.7c0.3 21.6 0.4 23 2.6 27.3 3.2 6.1 6.7 9.7 12.7 12.8l5 2.7h316 316l5-2.7c6-3.1 9.5-6.7 12.7-12.8 2.2-4.3 2.3-5.7 2.6-27.3l0.3-22.7h-13-13.1v-8.5-8.5h49.5 49.5v-14.5-14.5h-36.5-36.4l-0.4-119.3c-0.4-129.6-0.2-125-6.2-155.1-7.5-37.1-23.8-77.4-43.6-107.8l-2.4-3.8h-15-15l-5.7-8.3c-3.2-4.5-8-11-10.8-14.5-2.7-3.4-5-6.4-5-6.7 0-0.3 14.2-0.6 31.5-0.7l31.4-0.3-6.5-7.3-6.6-7.2h-17-17l-12.9-12.4c-28.3-27.3-64.1-50.2-101.4-64.9-30.5-12-60.9-19.1-93.8-21.7-17.2-1.3-68.9-1.1-85.7 0.5zm-65.5 218.2c25.3 8.2 43.9 26.2 51.9 50.4 1.5 4.6 3 11.2 3.3 14.9l0.6 6.6-5.2 1.3c-10.1 2.6-22.5 13-27.7 23.3-7 13.9-7.1 28.3 0 42.7 5.1 10.6 16.4 20.4 27.4 23.6l5.2 1.6v4.3c0 9.7-5.7 25.9-12.8 36.3-10.6 15.4-23.7 25.1-42.7 31.5-6.1 2-8.9 2.3-22.5 2.3-17.5 0-21.9-1-35.5-7.7-21.3-10.6-37-31.1-41.5-54.4-0.8-4.1-1-22.8-0.8-61.9l0.3-56 2.9-8.3c5.2-15 14-27.5 26-36.8 9.8-7.7 19.5-12.1 35.1-15.8 1.1-0.3 8.3-0.3 16-0.1 10.3 0.2 15.6 0.8 20 2.2zm271 0c25.3 8.2 43.9 26.2 51.9 50.4 1.5 4.6 3 11.2 3.3 14.9l0.6 6.6-5.2 1.3c-10.1 2.6-22.5 13-27.7 23.3-7 13.9-7.1 28.3 0 42.7 5.1 10.6 16.4 20.4 27.4 23.6l5.2 1.6v4.3c0 9.7-5.7 25.9-12.8 36.3-10.6 15.4-23.7 25.1-42.7 31.5-6.1 2-8.9 2.3-22.5 2.3-17.5 0-21.9-1-35.5-7.7-21.3-10.6-37-31.1-41.5-54.4-0.8-4.1-1-22.8-0.8-61.9l0.3-56 2.9-8.3c5.2-15 14-27.5 26-36.8 9.8-7.7 19.5-12.1 35.1-15.8 1.1-0.3 8.3-0.3 16-0.1 10.3 0.2 15.6 0.8 20 2.2z"/>
	</g>
</svg>