<?xml version="1.0" standalone="no"?>
<!DOCTYPE svg PUBLIC "-//W3C//DTD SVG 20010904//EN"
 "http://www.w3.org/TR/2001/REC-SVG-20010904/DTD/svg10.dtd">
<svg version="1.0" xmlns="http://www.w3.org/2000/svg"
 width="800.000000pt" height="800.000000pt" viewBox="0 0 800.000000 800.000000"
 preserveAspectRatio="xMidYMid meet">

<g transform="translate(0.000000,800.000000) scale(0.100000,-0.100000)"
fill="#000000" stroke="none">
<path d="M3310 7195 c-309 -29 -591 -96 -885 -212 -374 -148 -735 -379 -1012
-648 l-128 -124 168 -1 168 0 -67 -75 -67 -75 -322 0 -321 0 -84 -112 c-114
-154 -130 -176 -130 -182 0 -3 65 -6 145 -6 80 0 145 -3 145 -6 0 -3 -13 -24
-28 -47 -48 -71 -130 -220 -184 -333 -166 -352 -266 -729 -298 -1117 -6 -79
-10 -559 -10 -1243 l0 -1114 365 0 365 0 0 -145 0 -145 -495 0 -495 0 0 -85 0
-85 129 0 130 0 3 -227 c3 -216 4 -230 26 -273 32 -61 67 -97 127 -128 l50
-27 3160 0 3160 0 50 27 c60 31 95 67 127 128 22 43 23 57 26 273 l3 227 -130
0 -131 0 0 85 0 85 495 0 495 0 0 145 0 145 -365 0 -364 0 -4 1193 c-4 1296
-2 1250 -62 1551 -75 371 -238 774 -436 1078 l-24 38 -150 0 -150 0 -57 83
c-32 45 -80 110 -108 145 -27 34 -50 64 -50 67 0 3 142 6 315 7 l314 3 -65 73
-66 72 -170 0 -170 0 -129 124 c-283 273 -641 502 -1014 649 -305 120 -609
191 -938 217 -172 13 -689 11 -857 -5z m-655 -2182 c253 -82 439 -262 519
-504 15 -46 30 -112 33 -149 l6 -66 -52 -13 c-101 -26 -225 -130 -277 -233
-70 -139 -71 -283 0 -427 51 -106 164 -204 274 -236 l52 -16 0 -43 c0 -97 -57
-259 -128 -363 -106 -154 -237 -251 -427 -315 -61 -20 -89 -23 -225 -23 -175
0 -219 10 -355 77 -213 106 -370 311 -415 544 -8 41 -10 228 -8 619 l3 560 29
83 c52 150 140 275 260 368 98 77 195 121 351 158 11 3 83 3 160 1 103 -2 156
-8 200 -22z m2710 0 c253 -82 439 -262 519 -504 15 -46 30 -112 33 -149 l6
-66 -52 -13 c-101 -26 -225 -130 -277 -233 -70 -139 -71 -283 0 -427 51 -106
164 -204 274 -236 l52 -16 0 -43 c0 -97 -57 -259 -128 -363 -106 -154 -237
-251 -427 -315 -61 -20 -89 -23 -225 -23 -175 0 -219 10 -355 77 -213 106
-370 311 -415 544 -8 41 -10 228 -8 619 l3 560 29 83 c52 150 140 275 260 368
98 77 195 121 351 158 11 3 83 3 160 1 103 -2 156 -8 200 -22z"/>
</g>
</svg>
