<svg version="1.2" xmlns="http://www.w3.org/2000/svg" viewBox="0 0 800 800" width="800" height="800">
	<title>dots</title>
	<defs>
		<filter x="-50%" y="-50%" width="200%" height="200%" id="f1" ><feDropShadow dx="43.840620433565945" dy="43.84062043356595" stdDeviation="0" flood-color="#000000" flood-opacity="1"/></filter>
	</defs>
	<style>
		.s0 { filter: url(#f1);fill: #33a1ff;stroke: #000000;stroke-miterlimit:100;stroke-width: 18 } 
		.s1 { fill: #000000 } 
	</style>
	<path id="Background" fill-rule="evenodd" class="s0" d="m724 76v648h-648v-648z"/>
	<path id="XMLID_802_" class="s1" d="m280.4 320.1h-90c-4 0-7.3 3.2-7.3 7.2v289.1c0 4 3.3 7.3 7.3 7.3h90c4 0 7.2-3.3 7.2-7.3v-289.1c0-4-3.2-7.2-7.2-7.2z"/>
	<path id="XMLID_803_" fill-rule="evenodd" class="s1" d="m235.4 295c-32.9 0-59.4-26.5-59.4-59.3 0-32.9 26.5-59.4 59.4-59.4 32.8 0 59.3 26.5 59.3 59.4 0 32.8-26.5 59.3-59.3 59.3z"/>
	<path id="XMLID_804_" class="s1" d="m509.3 312.9c-36.2 0-62.9 15.5-79.1 33.2v-18.8c0-4-3.2-7.2-7.2-7.2h-86.2c-4 0-7.2 3.2-7.2 7.2v289.1c0 4 3.2 7.3 7.2 7.3h89.8c4 0 7.2-3.3 7.2-7.3v-143c0-48.2 13.1-67 46.7-67 36.6 0 39.5 30.1 39.5 69.4v140.6c0 4 3.3 7.3 7.3 7.3h89.8c4 0 7.2-3.3 7.2-7.3v-158.6c0-71.7-13.6-144.9-115-144.9z"/>
</svg>