<svg version="1.2" xmlns="http://www.w3.org/2000/svg" viewBox="0 0 800 800" width="800" height="800">
	<title>dots</title>
	<defs>
		<filter x="-50%" y="-50%" width="200%" height="200%" id="f1" ><feDropShadow dx="43.840620433565945" dy="43.84062043356595" stdDeviation="0" flood-color="#000000" flood-opacity="1"/></filter>
	</defs>
	<style>
		.s0 { filter: url(#f1);fill: #ffe533;stroke: #000000;stroke-miterlimit:100;stroke-width: 18 } 
		.s1 { fill: #000000 } 
	</style>
	<path id="Background" fill-rule="evenodd" class="s0" d="m724 76v648h-648v-648z"/>
	<path fill-rule="evenodd" class="s1" d="m400 165c-132 0-238.7 107.5-238.7 240.5 0 106.3 68.4 196.3 163.2 228.2 11.9 2.3 16.2-5.2 16.2-11.6 0-5.6-0.3-24.7-0.3-44.6-66.5 14.3-80.3-28.7-80.3-28.7-10.7-27.8-26.5-35-26.5-35-21.7-14.7 1.6-14.7 1.6-14.7 24.1 1.6 36.8 24.7 36.8 24.7 21.3 36.6 55.7 26.2 69.5 19.9 2-15.6 8.3-26.3 15.1-32.3-53-5.6-108.7-26.3-108.7-118.6 0-26.3 9.4-47.8 24.5-64.5-2.4-6-10.7-30.7 2.3-63.8 0 0 20.2-6.3 65.6 24.7q7.3-1.9 14.7-3.4 7.4-1.5 14.9-2.5 7.5-1 15-1.5 7.6-0.5 15.1-0.5c20.2 0 40.7 2.8 59.7 7.9 45.5-31 65.6-24.7 65.6-24.7 13.1 33.1 4.8 57.8 2.4 63.8 15.4 16.7 24.5 38.2 24.5 64.5 0 92.3-55.7 112.6-109.1 118.6 8.7 7.6 16.2 21.9 16.2 44.6 0 32.3-0.4 58.1-0.4 66.1 0 6.4 4.4 13.9 16.2 11.6 94.9-31.9 163.3-121.9 163.3-228.2 0.4-133-106.8-240.5-238.4-240.5z"/>
</svg>