<svg version="1.2" xmlns="http://www.w3.org/2000/svg" viewBox="0 0 800 800" width="800" height="800">
	<title>dots</title>
	<defs>
		<filter x="-50%" y="-50%" width="200%" height="200%" id="f1" ><feDropShadow dx="43.840620433565945" dy="43.84062043356595" stdDeviation="0" flood-color="#000000" flood-opacity="1"/></filter>
	</defs>
	<style>
		.s0 { filter: url(#f1);fill: #33ff55;stroke: #000000;stroke-miterlimit:100;stroke-width: 18 } 
		.s1 { fill: #000000 } 
	</style>
	<path id="Background" fill-rule="evenodd" class="s0" d="m724 76v648h-648v-648z"/>
	<path class="s1" d="m400 155c-135.3 0-245 109.7-245 245 0 135.3 109.7 245 245 245 135.3 0 245-109.7 245-245 0-135.3-109.7-245-245-245zm-213.6 260.3h52.5c1.2 25.4 5.1 48.7 11 69.6h-46.7c-9.3-21.6-15.1-45-16.8-69.6zm289.2-30.6c-1.2-24.6-4.1-47.9-8-69.6h50.2c6.6 20.6 11.2 43.7 12.6 69.6zm-114.2 100.2c-4.3-23.9-6.4-47.2-6.8-69.6h90.9c-0.4 22.4-2.5 45.7-6.9 69.6zm70.6 30.6c-7.2 27.6-17.6 55.7-31.9 83.8-14.4-28.1-24.8-56.2-32-83.8zm-77-130.8c1.2-24.8 4.4-48.1 8.5-69.6h73.1c4.2 21.5 7.3 44.8 8.5 69.6zm15.4-100.2c9.6-37.4 21.4-66.8 29.6-85 8.3 18.2 20.1 47.6 29.7 85zm90.7 0c-9.7-40.5-22.3-73-31.6-94 11.6 8.2 50 38.6 76.3 94zm-90.6-94c-9.3 21-21.8 53.5-31.6 94h-44.6c26.2-55.4 64.7-85.8 76.2-94zm-38.1 124.6c-3.9 21.7-6.8 45-8 69.6h-54.8c1.4-25.9 5.9-49 12.6-69.6zm-93.4 69.6h-52.6c1.7-24.6 7.5-48 16.8-69.6h46.9c-6 20.9-9.9 44.1-11.1 69.6zm30.6 30.6h54.4c0.3 22.5 2.2 45.7 6.2 69.6h-48c-6.7-20.6-11.3-43.8-12.6-69.6zm67 100.2c7.5 31.2 18.6 63.1 34.7 95.1-10.8-7.8-50.3-38.8-77-95.1zm92.1 95.1c16-32 27.2-63.9 34.7-95.1h42.6c-26.6 56.6-66.2 87.3-77.3 95.1zm41.1-125.7c4-23.9 5.9-47.1 6.2-69.6h54.5c-1.4 25.9-5.9 49-12.5 69.6zm91.3-69.6h52.5c-1.7 24.6-7.5 48-16.8 69.6h-46.7c5.9-20.9 9.8-44.2 11-69.6zm-0.1-30.6c-1.2-25.5-5.1-48.7-11.1-69.6h46.9c9.3 21.6 15.1 45 16.8 69.6zm19.3-100.2h-41.2c-13.7-33-31.6-59.1-48.4-78.4 36.8 17.2 67.8 44.5 89.6 78.4zm-271.1-78.4c-16.8 19.3-34.6 45.4-48.3 78.4h-41.2c21.8-33.9 52.8-61.2 89.5-78.4zm-89.5 309.4h41c13.5 32.6 31 58.6 47.7 78-36.4-17.2-67.1-44.4-88.7-78zm271.9 78c16.6-19.4 34.2-45.4 47.7-78h41c-21.6 33.6-52.4 60.8-88.7 78z"/>
</svg>